<svg width="32" height="32" viewBox="0 0 120 120" fill="none" xmlns="http://www.w3.org/2000/svg">
  <defs>
    <clipPath id="lc">
      <path d="M18 10 L54 10 C86 10 102 32 102 60 C102 88 86 110 54 110 L18 110 Z"/>
    </clipPath>
  </defs>
  <path d="M18 10 L54 10 C86 10 102 32 102 60 C102 88 86 110 54 110 L18 110 Z" fill="#0f172a"/>
  <path d="M0 35 C25 24 50 44 75 35 C100 24 115 38 130 33 L130 0 L0 0 Z" fill="#ccfbf1" clip-path="url(#lc)"/>
  <path d="M0 62 C25 50 50 70 75 62 C100 50 115 64 130 59 L130 33 C115 38 100 24 75 35 C50 44 25 24 0 35 Z" fill="#0d9488" clip-path="url(#lc)"/>
  <path d="M0 88 C25 76 50 96 75 88 C100 76 115 90 130 85 L130 59 C115 64 100 50 75 62 C50 70 25 50 0 62 Z" fill="#0f766e" clip-path="url(#lc)"/>
  <path d="M0 120 L130 120 L130 85 C115 90 100 76 75 88 C50 96 25 76 0 88 Z" fill="#1e3a5f" clip-path="url(#lc)"/>
  <path d="M18 35 C30 24 48 44 66 35 C84 24 98 38 102 34" stroke="rgba(255,255,255,0.55)" stroke-width="2" fill="none" clip-path="url(#lc)"/>
  <path d="M18 62 C30 50 48 70 66 62 C84 50 98 64 102 60" stroke="rgba(255,255,255,0.45)" stroke-width="2" fill="none" clip-path="url(#lc)"/>
  <path d="M18 88 C30 76 48 96 66 88 C84 76 98 90 102 86" stroke="rgba(255,255,255,0.3)" stroke-width="2" fill="none" clip-path="url(#lc)"/>
  <rect x="18" y="10" width="10" height="100" fill="#0f172a"/>
</svg>
